# File created by Blade
# Date/Time:  Wed Apr 08 17:17:01 2015
# Frame Rate: 120.000 fps
#------------------------------------------------------
:FULLY-SPECIFIED
:DEGREES
1396
root 6.731901 36.938193 6.990999 191.923038 -9.320935 -161.083843
Spine 6.969664 -5.547266 -2.610989
Head -0.630738 11.777356 19.135169
LeftShoulder -7.356176 14.319863 18.663137
LeftArm 16.723825 25.666832 -73.854983
LeftForeArm 30.805205 -0.000000 31.291133
LeftHand -10.732784 -0.000000 -18.910354
LeftHandThumb1 -26.253704 0.000000 33.147579
RightShoulder -42.385625 -49.432482 29.940436
RightArm 44.346651 -22.158607 64.711926
RightForeArm 18.691159 0.000000 1.366933
RightHand -6.600402 -0.000000 7.526619
RightHandThumb1 -24.326973 -0.000000 -32.862282
LeftUpLeg -31.503324 48.851240 -11.646846
LeftLeg 16.664547 -0.000000 -0.000000
LeftFoot -24.807860 23.303510 -19.082178
LeftToeBase 5.184378 -0.000000 -0.000000
RightUpLeg 14.012322 -5.207259 -17.693977
RightLeg 136.357085 -0.000000 -0.000000
RightFoot 38.529417 7.703124 22.207463
RightToeBase 11.006676 -0.000000 -0.000000
1397
root 6.693668 36.938345 6.953936 191.593630 -9.514807 -161.118791
Spine 7.006512 -5.522738 -2.405787
Head -0.542414 11.580459 19.211285
LeftShoulder -7.367693 14.323276 18.672139
LeftArm 16.801313 25.296389 -74.017827
LeftForeArm 30.880808 -0.000000 31.519975
LeftHand -10.684440 0.000000 -18.825903
LeftHandThumb1 -26.253704 0.000000 33.147579
RightShoulder -42.292019 -49.427215 29.947185
RightArm 44.512891 -22.050450 64.538386
RightForeArm 18.483112 -0.000000 1.384176
RightHand -6.618907 -0.000000 7.576313
RightHandThumb1 -24.326973 -0.000000 -32.862282
LeftUpLeg -30.802513 48.832220 -11.291492
LeftLeg 16.415632 -0.000000 -0.000000
LeftFoot -24.699601 23.257332 -18.973419
LeftToeBase 5.187943 -0.000000 -0.000000
RightUpLeg 13.669170 -5.106179 -17.480502
RightLeg 136.405754 -0.000000 -0.000000
RightFoot 38.638053 7.895166 22.068462
RightToeBase 10.508756 -0.000000 -0.000000
1398
root 6.661121 36.939791 6.911717 191.269265 -9.832860 -161.163455
Spine 7.021263 -5.549631 -2.199772
Head -0.449114 11.304579 19.285033
LeftShoulder -7.341674 14.306089 18.696020
LeftArm 16.864691 25.094336 -74.111075
LeftForeArm 30.889106 0.000000 31.812195
LeftHand -10.796253 0.000000 -18.638552
LeftHandThumb1 -26.253704 0.000000 33.147579
RightShoulder -42.225099 -49.339826 29.955976
RightArm 44.606790 -21.998670 64.356845
RightForeArm 18.337006 0.000000 1.365977
RightHand -6.537217 -0.000000 7.645317
RightHandThumb1 -24.326973 -0.000000 -32.862282
LeftUpLeg -30.113333 48.755889 -10.933330
LeftLeg 16.171649 -0.000000 -0.000000
LeftFoot -24.530318 23.163019 -18.801018
LeftToeBase 5.108630 -0.000000 -0.000000
RightUpLeg 13.413441 -5.003748 -17.208907
RightLeg 136.251228 -0.000000 -0.000000
RightFoot 39.496878 8.006559 22.482242
RightToeBase 9.336391 -0.000000 -0.000000
1399
root 6.627278 36.937421 6.871496 190.976159 -10.186402 -161.259165
Spine 7.002703 -5.650342 -2.044853
Head -0.305839 11.100062 19.385924
LeftShoulder -7.365440 14.331103 18.705371
LeftArm 16.986151 25.046623 -74.110264
LeftForeArm 30.766040 -0.000000 32.087890
LeftHand -10.805626 -0.000000 -18.466745
LeftHandThumb1 -26.253704 0.000000 33.147579
RightShoulder -42.140718 -49.310869 29.941847
RightArm 44.787424 -22.038493 64.087980
RightForeArm 18.431217 -0.000000 1.282052
RightHand -6.481074 0.000000 7.661871
RightHandThumb1 -24.326973 -0.000000 -32.862282
LeftUpLeg -29.463976 48.649785 -10.657133
LeftLeg 15.931363 -0.000000 -0.000000
LeftFoot -24.373987 23.037182 -18.652903
LeftToeBase 5.072403 -0.000000 -0.000000
RightUpLeg 13.188056 -5.038702 -17.050576
RightLeg 136.360213 -0.000000 -0.000000
RightFoot 39.381211 7.826163 22.675542
RightToeBase 9.344293 -0.000000 -0.000000
1400
root 6.591489 36.931969 6.829248 190.669623 -10.588288 -161.395982
Spine 6.993515 -5.740536 -1.924113
Head -0.151381 10.847063 19.495628
LeftShoulder -7.348751 14.322528 18.754290
LeftArm 17.111163 25.059441 -74.141579
LeftForeArm 30.685146 0.000000 32.282315
LeftHand -10.798202 0.000000 -18.349128
LeftHandThumb1 -26.253704 0.000000 33.147579
RightShoulder -42.107570 -49.257453 29.938690
RightArm 44.910381 -22.010085 63.918515
RightForeArm 18.409333 -0.000000 1.223488
RightHand -6.636578 -0.000000 7.773717
RightHandThumb1 -24.326973 -0.000000 -32.862282
LeftUpLeg -28.797077 48.562446 -10.422825
LeftLeg 15.688037 -0.000000 -0.000000
LeftFoot -24.209030 22.838578 -18.476195
LeftToeBase 5.051028 -0.000000 -0.000000
RightUpLeg 13.054492 -5.056481 -16.961518
RightLeg 136.458082 -0.000000 -0.000000
RightFoot 39.218556 7.796991 22.774736
RightToeBase 9.555584 -0.000000 -0.000000
1401
root 6.554331 36.924981 6.786478 190.362259 -11.027525 -161.540832
Spine 6.978327 -5.840198 -1.797973
Head 0.021721 10.578522 19.572103
LeftShoulder -7.337578 14.305317 18.790269
LeftArm 17.232946 25.101192 -74.181973
LeftForeArm 30.628841 -0.000000 32.440835
LeftHand -10.785179 -0.000000 -18.218340
LeftHandThumb1 -26.253704 0.000000 33.147579
RightShoulder -42.071492 -49.217693 29.910601
RightArm 44.963610 -21.929091 63.846460
RightForeArm 18.233027 0.000000 1.162038
RightHand -6.600412 -0.000000 7.864026
RightHandThumb1 -24.326973 -0.000000 -32.862282
LeftUpLeg -28.133970 48.450238 -10.193655
LeftLeg 15.455914 -0.000000 -0.000000
LeftFoot -24.040520 22.640406 -18.289430
LeftToeBase 5.025385 -0.000000 -0.000000
RightUpLeg 12.926338 -5.112262 -16.907397
RightLeg 136.510669 -0.000000 -0.000000
RightFoot 39.242494 7.649188 22.833731
RightToeBase 9.525831 -0.000000 -0.000000
1402
root 6.516430 36.917003 6.744494 190.068739 -11.473877 -161.709996
Spine 6.957973 -5.902607 -1.709232
Head 0.189273 10.291678 19.659550
LeftShoulder -7.285826 14.160908 18.872265
LeftArm 17.210582 25.186848 -74.304107
LeftForeArm 30.550469 -0.000000 32.577548
LeftHand -10.752614 0.000000 -18.121527
LeftHandThumb1 -26.253704 0.000000 33.147579
RightShoulder -42.114561 -49.178885 29.937349
RightArm 45.032101 -21.889244 63.754201
RightForeArm 18.219654 -0.000000 1.144783
RightHand -6.633623 -0.000000 7.798154
RightHandThumb1 -24.326973 -0.000000 -32.862282
LeftUpLeg -27.488551 48.332604 -9.999390
LeftLeg 15.234367 -0.000000 -0.000000
LeftFoot -23.866612 22.421047 -18.106275
LeftToeBase 5.001219 -0.000000 -0.000000
RightUpLeg 12.820389 -5.108295 -16.902170
RightLeg 136.519659 -0.000000 -0.000000
RightFoot 39.397703 7.610456 22.989368
RightToeBase 9.434856 -0.000000 -0.000000
1403
root 6.478011 36.907137 6.700817 189.787643 -11.963114 -161.893174
Spine 6.907047 -6.009736 -1.625723
Head 0.381432 10.037293 19.755160
LeftShoulder -7.292111 14.141753 18.897531
LeftArm 17.288855 25.216857 -74.388132
LeftForeArm 30.587691 0.000000 32.730634
LeftHand -10.733936 -0.000000 -18.088418
LeftHandThumb1 -26.253704 0.000000 33.147579
RightShoulder -42.018930 -49.139120 29.798176
RightArm 44.894703 -21.714718 63.929034
RightForeArm 18.034895 -0.000000 1.197046
RightHand -6.665692 -0.000000 7.864741
RightHandThumb1 -24.326973 -0.000000 -32.862282
LeftUpLeg -26.820237 48.118372 -9.780770
LeftLeg 15.021442 -0.000000 -0.000000
LeftFoot -23.729703 22.222466 -17.986608
LeftToeBase 4.973032 -0.000000 -0.000000
RightUpLeg 12.757678 -5.119875 -16.944532
RightLeg 136.519297 -0.000000 -0.000000
RightFoot 39.437040 7.651728 23.087907
RightToeBase 9.442188 -0.000000 -0.000000
1404
root 6.436820 36.896643 6.660249 189.498305 -12.405284 -162.082842
Spine 6.889439 -6.018938 -1.556827
Head 0.511894 9.806536 19.834950
LeftShoulder -7.260360 14.091414 18.916684
LeftArm 17.357538 25.297438 -74.445624
LeftForeArm 30.474049 -0.000000 32.881874
LeftHand -10.717361 0.000000 -18.066293
LeftHandThumb1 -26.253704 0.000000 33.147579
RightShoulder -42.030797 -49.125866 29.767604
RightArm 44.849144 -21.564692 64.001581
RightForeArm 17.912276 -0.000000 1.261454
RightHand -6.672985 -0.000000 7.922302
RightHandThumb1 -24.326973 -0.000000 -32.862282
LeftUpLeg -26.131125 47.916626 -9.561666
LeftLeg 14.805185 -0.000000 -0.000000
LeftFoot -23.600626 22.050395 -17.861511
LeftToeBase 4.948606 -0.000000 -0.000000
RightUpLeg 12.664037 -5.065003 -17.035694
RightLeg 136.536671 -0.000000 -0.000000
RightFoot 39.459179 7.630930 23.204506
RightToeBase 9.546820 -0.000000 -0.000000
1405
root 6.394018 36.886296 6.625508 189.246940 -12.827511 -162.281078
Spine 6.844052 -5.996180 -1.487993
Head 0.632261 9.562512 19.872568
LeftShoulder -7.240966 14.015884 18.907680
LeftArm 17.348331 25.245899 -74.583055
LeftForeArm 30.460604 0.000000 33.053647
LeftHand -10.611728 -0.000000 -18.218074
LeftHandThumb1 -26.253704 0.000000 33.147579
RightShoulder -42.027092 -49.126103 29.722376
RightArm 44.773831 -21.376123 64.113133
RightForeArm 17.795826 -0.000000 1.362651
RightHand -6.644305 -0.000000 7.947205
RightHandThumb1 -24.326973 -0.000000 -32.862282
LeftUpLeg -25.468683 47.637702 -9.366273
LeftLeg 14.575346 -0.000000 -0.000000
LeftFoot -23.478578 21.967884 -17.764407
LeftToeBase 4.901248 -0.000000 -0.000000
RightUpLeg 12.508784 -4.956915 -17.155255
RightLeg 136.580377 -0.000000 -0.000000
RightFoot 39.406474 7.693207 23.303514
RightToeBase 9.641674 -0.000000 -0.000000
1406
root 6.352774 36.878584 6.591782 188.996317 -13.247338 -162.456353
Spine 6.822179 -5.938726 -1.408560
Head 0.696000 9.309704 19.898190
LeftShoulder -7.232272 13.990080 18.880506
LeftArm 17.397036 25.228769 -74.667694
LeftForeArm 30.367725 -0.000000 33.240544
LeftHand -10.568387 0.000000 -18.263446
LeftHandThumb1 -26.253704 0.000000 33.147579
RightShoulder -42.032829 -49.093821 29.718987
RightArm 44.730603 -21.190256 64.132866
RightForeArm 17.886553 0.000000 1.447911
RightHand -6.725398 -0.000000 8.088427
RightHandThumb1 -24.326973 -0.000000 -32.862282
LeftUpLeg -24.783761 47.279323 -9.114589
LeftLeg 14.341737 -0.000000 -0.000000
LeftFoot -23.353563 21.960823 -17.664502
LeftToeBase 4.854832 -0.000000 -0.000000
RightUpLeg 12.316806 -4.828582 -17.266836
RightLeg 136.617202 -0.000000 -0.000000
RightFoot 39.355914 7.762272 23.363280
RightToeBase 9.668835 -0.000000 -0.000000
1407
root 6.315027 36.871765 6.560128 188.742319 -13.650181 -162.595545
Spine 6.813311 -5.874861 -1.301927
Head 0.728952 9.132659 19.901275
LeftShoulder -7.241650 13.954885 18.831158
LeftArm 17.410404 25.259066 -74.732963
LeftForeArm 30.262072 -0.000000 33.427592
LeftHand -10.504849 -0.000000 -18.276834
LeftHandThumb1 -26.253704 0.000000 33.147579
RightShoulder -41.940003 -49.038457 29.631797
RightArm 44.647712 -21.100379 64.103242
RightForeArm 17.841075 0.000000 1.560883
RightHand -6.681636 -0.000000 8.073718
RightHandThumb1 -24.326973 -0.000000 -32.862282
LeftUpLeg -24.106429 46.871006 -8.812192
LeftLeg 14.124967 -0.000000 -0.000000
LeftFoot -23.276746 21.994044 -17.635208
LeftToeBase 4.811266 -0.000000 -0.000000
RightUpLeg 12.101479 -4.649501 -17.326569
RightLeg 136.665421 -0.000000 -0.000000
RightFoot 39.259969 7.878590 23.404706
RightToeBase 9.625520 -0.000000 -0.000000
